# xmcd
#
# Track frame offsets: 
#        300
#        19933
#        41728
#        56952
#        75045
#        93915
#        115024
#        138492
#        158849
#        173917
#        195280
#        215318
#        232897
#
# Disc length: 3349 seconds
#
# Revision: 0
# Processed by: cddbd v1.5.1PL0 Copyright (c) Steve Scherf et al.
# Submitted via: ExactAudioCopy v0.90b4
#
DISCID=9e0d110d
DTITLE=Andy mayo - Dreams Of A Homecoming
DYEAR=2003
DGENRE=R&B
TTITLE0=Whining Of The Brakes
TTITLE1=Arms Held Open
TTITLE2=Princess In The Park
TTITLE3=Train
TTITLE4=Eternity
TTITLE5=Pink House Peace
TTITLE6=The Reason
TTITLE7=Dreams Of A Homecoming
TTITLE8=Salvation Day
TTITLE9=Today
TTITLE10=Coming Home
TTITLE11=May The Lord Answer You
TTITLE12=Find Rest
EXTD=www.andymayo.com
EXTT0=
EXTT1=
EXTT2=
EXTT3=
EXTT4=
EXTT5=
EXTT6=
EXTT7=
EXTT8=
EXTT9=
EXTT10=
EXTT11=
EXTT12=
PLAYORDER=
